<svg xmlns="http://www.w3.org/2000/svg" viewBox="0 0 130.02 150.13"><g><g><path fill="#00a5e3" d="M35.83 91.91l29.18-16.85-29.18-16.84v33.69z"/><path fill="#f18e38" d="M94.19 58.22L65.01 75.06l29.18 16.85V58.22z"/><path fill="#dd5a00" d="M65.01 75.06v33.7l29.18-16.85-29.18-16.85z"/><path fill="#7ac3ed" d="M35.83 58.22l29.18 16.84V41.37L35.83 58.22z"/><path fill="#f9be65" d="M65.01 41.37v33.69l29.18-16.84-29.18-16.85z"/><path fill="#006198" d="M65.01 108.76v-33.7L35.83 91.91l29.18 16.85z"/><path fill="#f9be65" d="M65.01 0v31.41l37.8 21.83 27.21-15.71L65.01 0z"/><path fill="#7ac3ed" d="M27.21 53.24L0 37.53 65.01 0v31.41l-37.8 21.83z"/><path fill="#006198" d="M27.21 96.89L0 112.6l65.01 37.53v-31.41l-37.8-21.83z"/><path fill="#00a5e3" d="M27.21 53.24L0 37.53v75.07l27.21-15.71V53.24z"/><path fill="#dd5a00" d="M102.81 96.89l-37.8 21.83v31.41l65.01-37.53-27.21-15.71z"/></g></g></svg>